<svg id="Layer_1" data-name="Layer 1" xmlns="http://www.w3.org/2000/svg" viewBox="0 0 48.1 16.2"><g id="Layer_2" data-name="Layer 2"><g id="_0" data-name=" 0"><path d="M2,3.5a1.7,1.7,0,0,1,.1-.7l2.1-.2v.2L4,3.4,3.8,4.8q.5,6.9-1.5,8.1l-.8-.3H.9c-.4.2-.7-.4-.9-1.6s.3-.4,1-.6.3.2.5.6l.3.8c.6-.1.6-2.3.2-6.6Z" transform="translate(0 0)"/><path d="M5.8,3a2.4,2.4,0,0,0,1.4.5h1a36,36,0,0,0,2.6,5.2l1,1.1a8,8,0,0,0,2.1,1.5h0l-1.8.2A5.8,5.8,0,0,1,9.3,9.6,14.1,14.1,0,0,1,7.4,6.2,1.9,1.9,0,0,1,7,5.3H6.9v.8L6.6,7.7h1c.3,0,.5.4.8,1h.1v.2c-1.5,0-2.4.3-2.4.9l-.6,1.4v.5l-.7-.2H3A9.4,9.4,0,0,0,4.2,9.1V8.2L4.7,8l.7-2.9h0V3.1Z" transform="translate(0 0)"/><path d="M13.5,9.6v1.8H13l-1,.5h-.1V10.3h0V9.8h-.1V9.5c0-.4-.1-.8-.1-1.1l-.3-3.3a10.6,10.6,0,0,0-.4-1.9A8.4,8.4,0,0,0,10.1.1h.6c.8-.1,1.2,0,1.3.3a50.5,50.5,0,0,1,1.2,5.3h0l2-2.2a2.4,2.4,0,0,1,1,1v.6l-2.3,2,1.5,2.5a23.5,23.5,0,0,0,1.9,2.5,1.4,1.4,0,0,1-.2.6H15.4C14.9,11.8,14.3,10.8,13.5,9.6Z" transform="translate(0 0)"/><path d="M17.6,4.2h.9L17,4.9h-.8V4.6Zm.8,6.3c-.7-.1-1.3-.8-1.6-2a4.9,4.9,0,0,1-.1-1.2,3.2,3.2,0,0,1,.9-1.7h0c.6.4.9.8.9,1.1l-.4,1.1a1.7,1.7,0,0,0,.7,1.6c.3-.2.4-.6.3-1.3A4.4,4.4,0,0,0,18,5.6c-.5-.3-.7-.4-.7-.5a4.4,4.4,0,0,1,1.5-.5h.1a4,4,0,0,1,1.8,2.6v.6h-.1a2.7,2.7,0,0,1-.8,2.2A1.6,1.6,0,0,1,18.4,10.5Z" transform="translate(0 0)"/><path d="M28.1,9.1h.4l.8.5a1.5,1.5,0,0,1,.6.9,1.4,1.4,0,0,1,0,1.5c-.1.9-1.7,2.1-4.7,3.7-.2.1-.3.2-.3.4s-1.1-.7-1.1-.8v-.2a14.7,14.7,0,0,0,1-2.2c.3-1.1.1-1.7-.5-2v-.2h1.2a1.9,1.9,0,0,1,.7,2.2l-.2.6a.4.4,0,0,1-.1.3h0l.9-.6.6-.3a3.1,3.1,0,0,0,.9-1.4v-.5a2.4,2.4,0,0,0-1.9-1.6H24.1v3.9l-.6-.2h-.8V11.8A23.9,23.9,0,0,0,21.3,3h0a7.8,7.8,0,0,0-.5-1.4V1.4c0-.4.6-.7,1.7-.7s.6.5.7,1.2h0A17.6,17.6,0,0,0,28,7.3a3.9,3.9,0,0,1,.8,1A1,1,0,0,1,28.1,9.1Zm-4.6-4v.4A17.7,17.7,0,0,1,24,8.7h1.3c.7,0,1.1-.2,1.2-.5a1.6,1.6,0,0,0-.9-1.4l-.5-.4L23.5,5.1Z" transform="translate(0 0)"/><path d="M31.1,5a.9.9,0,0,1-1.2-.6.6.6,0,0,1-.1-.4c-.2-.7,0-1,.7-1h.3c.4-.1.7.2.8,1A.8.8,0,0,1,31.1,5Zm.6,2a19.3,19.3,0,0,0,.1,2.5l.3,1h.1l1.5-.2h0a8.3,8.3,0,0,0-.4,1.5H33a2.6,2.6,0,0,0-1.3.8c-.4.1-.8-.6-1.2-2l-.3-1h0V9.3h0V6.3l1.9-.5Z" transform="translate(0 0)"/><path d="M40.7,9.6v.2h-.1v.4h0v1.3h-.1a1.9,1.9,0,0,0-1-.5h-.1l-.4-.2h-.8A9.8,9.8,0,0,0,35,7.1h0c.4.3.6.5.5.6V8a6.4,6.4,0,0,1-.5,2.3h-.1a7.6,7.6,0,0,1-1.1-1.4V8.7h0a8.5,8.5,0,0,0-.6-3.1l-.9-1.4C33.5,4,34,4,34,3.9a11.8,11.8,0,0,1,4.1,3.9l.8,1.3H39V8.6h0V7.9H39V7.7A21.6,21.6,0,0,1,41.2.6c0-.3.5-.4,1.3-.4h.6a16.6,16.6,0,0,0-1.2,3.1l-.4,1.2C41.3,5.4,41,7.1,40.7,9.6Z" transform="translate(0 0)"/><path d="M46.7,4.2h0l-1.5.6c-1.4,1.1-2.1,2.3-2,3.5a2.1,2.1,0,0,0,.5,1.3,1.4,1.4,0,0,0,1.1.2q.8-.2,1.5-1.5c.4-.2.7.3.8,1.5a3,3,0,0,1-3,1.7H44l-.8-.3a3.8,3.8,0,0,1-1.7-3.7c0-1.8,1-3.2,3-4.3A10.2,10.2,0,0,1,46.7,4.2Zm1.4-.5-.9.2c-1.2-.3-1.7-.6-1.7-.7H46A8.3,8.3,0,0,1,48.1,3.7Z" transform="translate(0 0)"/></g></g></svg>