<svg xmlns="http://www.w3.org/2000/svg" viewBox="0 0 48.1 21.82"><title>Asset 1</title><g id="Layer_2" data-name="Layer 2"><g id="_0" data-name="0"><path d="M2,3.52a1.23,1.23,0,0,1,.12-.76l2.13-.18,0,.21L4,3.36,3.77,4.81c.3,4.62-.19,7.3-1.45,8.06l-.77-.23-.66,0C.51,12.76.22,12.19,0,11c0-.18.32-.38,1.05-.61.11,0,.26.16.44.56l.29.87q.89-.23.18-6.58Z"/><path d="M5.77,3a3.21,3.21,0,0,0,1.46.54V3.48l.06.06h0l.89.05A28.52,28.52,0,0,0,10.8,8.78l1,1.15a6.44,6.44,0,0,0,2.1,1.43v.13a6.07,6.07,0,0,0-1.75.24A6.77,6.77,0,0,1,9.26,9.65,15.35,15.35,0,0,1,7.44,6.22,2.35,2.35,0,0,1,7,5.35H6.9l-.06.74L6.58,7.74h1c.28,0,.57.35.87.92l.06,0,0,.26c-1.56,0-2.37.24-2.42.85L5.5,11.21l.14.29-.08.2-.65-.16H4.85L3,11.42l0-.13A9.08,9.08,0,0,0,4.22,9.14l0-.9L4.65,8l.71-2.91H5.31l.05-.06.15-1.62,0-.35Z"/><path d="M13.54,9.58v1.78l-.48,0H13L13,11.33a3,3,0,0,0-1,.46v-.06l-.07-.06-.09-1,0-.35-.06-.05V9.77l-.06-.06,0-.2c0-.39-.07-.77-.11-1.14L11.29,5.1c-.11-.67-.22-1.3-.35-1.88A9.49,9.49,0,0,0,10.09.06V0l.63.05C11.53,0,11.94.12,12,.43A39.46,39.46,0,0,1,13.18,5.7v0c1-1.14,1.7-1.86,2-2.15a2.25,2.25,0,0,1,1,.93,5.74,5.74,0,0,0,0,.6A20.14,20.14,0,0,0,13.9,7.13a26.88,26.88,0,0,0,1.5,2.45,20,20,0,0,0,1.88,2.48,2.78,2.78,0,0,1-.13.61l-1.78,0C14.91,11.77,14.3,10.76,13.54,9.58Z"/><path d="M17.65,4.22l.34,0,.05.08.06-.06.16,0,.06.07h.05l.06,0,.05,0v.07L17,4.89l-.39-.12-.43,0V4.59Zm.79,6.24c-.75-.1-1.3-.76-1.66-2a3.24,3.24,0,0,1-.07-1.16,2.59,2.59,0,0,1,.87-1.67l.06,0c.59.4.88.75.86,1.06l-.44,1.11a1.76,1.76,0,0,0,.7,1.58c.31-.17.42-.61.35-1.32A4.81,4.81,0,0,0,18,5.56c-.5-.25-.74-.41-.73-.5a4.67,4.67,0,0,1,1.55-.47h.11a4.12,4.12,0,0,1,1.78,2.6l.06.56h-.06A2.91,2.91,0,0,1,19.94,10,1.53,1.53,0,0,1,18.44,10.46Z"/><path d="M28.12,9.1l.37.06.82.51a1.82,1.82,0,0,1,.63.92,1.74,1.74,0,0,1,0,1.54c-.13.88-1.72,2.1-4.76,3.68a.65.65,0,0,0-.33.38c-.74-.4-1.1-.67-1.07-.79l0-.17a11.44,11.44,0,0,0,1-2.23c.27-1.1.1-1.75-.5-2l0-.16a5,5,0,0,1,1.25-.1,1.75,1.75,0,0,1,.65,2.13l-.14.59c-.06.23-.11.35-.15.35v.05q.21.07.87-.54l.64-.37a3,3,0,0,0,.94-1.32c0-.35,0-.54-.07-.58a2.53,2.53,0,0,0-1.85-1.56h-.07l-1.66,0-.6.1c0,1.41,0,2.73,0,3.94l-.63-.2h-.79V11.77A24.37,24.37,0,0,0,21.3,3V3a14.52,14.52,0,0,0-.51-1.4V1.41c0-.43.6-.66,1.68-.66.36,0,.59.42.69,1.12h.07A16.79,16.79,0,0,0,28,7.26a3,3,0,0,1,.75,1.05A1,1,0,0,1,28.12,9.1Zm-4.59-4c0,.14,0,.29,0,.44A21.52,21.52,0,0,1,24,8.68l1.33.05c.67-.08,1.05-.26,1.15-.55a1.44,1.44,0,0,0-.9-1.38c0-.08-.17-.21-.52-.41A13.72,13.72,0,0,1,23.53,5.06Z"/><path d="M31.15,5a1,1,0,0,1-1.33-1c-.17-.65,0-1,.64-1l.35,0c.4-.12.68.22.84,1C31.7,4.52,31.53,4.86,31.15,5Zm.53,2c0,.94.05,1.78.12,2.51l.25,1,.1,0,0-.12,1.56-.18v.06a6,6,0,0,0-.4,1.53l-.27.06a3.45,3.45,0,0,0-1.35.82c-.36.07-.77-.58-1.23-1.94l-.26-1,.05-.08-.11-.31,0-.14.06-.08-.06,0L30,7.6V6.25l1.9-.48Z"/><path d="M40.7,9.59l0,.2-.06.06v.48l-.06.05,0,.35-.09,1-.07.07v.06a3.25,3.25,0,0,0-1-.47l-.07.07,0,0-.49-.12-.06.06v-.07l-.67,0a9.48,9.48,0,0,0-3.09-4.22h-.06V7.2c.39.3.58.48.57.56l0,.2A7.87,7.87,0,0,1,35,10.27h-.06a5.37,5.37,0,0,1-1.16-1.38l0-.21.06-.06a7.94,7.94,0,0,0-.68-3.08L32.3,4.06C33.46,4,34,4,34.05,3.88a13,13,0,0,1,4.07,3.94l.79,1.26H39V9l0-.41,0,0V8.48l0-.35.08-.25H39l.07-.21A20.65,20.65,0,0,1,41.22.59c0-.31.44-.43,1.25-.38l.63,0v0a14.24,14.24,0,0,0-1.22,3.05l-.33,1.24C41.32,5.41,41,7.1,40.7,9.59Z"/><path d="M46.66,4.23v.1l-1.42.6C43.77,6,43.1,7.2,43.22,8.45a2,2,0,0,0,.46,1.22,1.47,1.47,0,0,0,1.12.23c.51-.05,1-.57,1.54-1.54.34-.16.61.34.8,1.51a3.06,3.06,0,0,1-3,1.74H44l-.79-.3a4,4,0,0,1-1.76-3.69q0-2.67,3-4.27A5.57,5.57,0,0,1,46.66,4.23Zm1.44-.49-.88.2c-1.17-.34-1.75-.6-1.75-.78v-.1H46A6.49,6.49,0,0,1,48.1,3.74Z"/><path d="M1.17,21.41v-3.9a.43.43,0,0,1,.1-.29.29.29,0,0,1,.24-.12c.17,0,.28.11.32.32a.83.83,0,0,1,.63-.33.76.76,0,0,1,.66.42.91.91,0,0,1,.71-.42.68.68,0,0,1,.54.27,1.23,1.23,0,0,1,.25.7l.09,3.35a.4.4,0,0,1-.1.28.31.31,0,0,1-.23.13.33.33,0,0,1-.25-.13.45.45,0,0,1-.1-.28L4,18.19c0-.18-.05-.27-.13-.27a.21.21,0,0,0-.14.08l-.4.41v3a.45.45,0,0,1-.1.28.3.3,0,0,1-.48,0,.48.48,0,0,1-.1-.29V18.13c0-.14,0-.21-.14-.21a.16.16,0,0,0-.13.07l-.49.5v2.92a.45.45,0,0,1-.09.28.33.33,0,0,1-.24.13.33.33,0,0,1-.24-.13A.4.4,0,0,1,1.17,21.41Z"/><path d="M10.15,21.81H8.1a.31.31,0,0,1-.24-.12.43.43,0,0,1-.1-.29.41.41,0,0,1,.1-.29A.31.31,0,0,1,8.1,21h.69V17.92H8.11a.29.29,0,0,1-.24-.12.47.47,0,0,1,0-.58.29.29,0,0,1,.24-.13h1a.29.29,0,0,1,.24.13.43.43,0,0,1,.1.29V21h.67a.3.3,0,0,1,.24.11.44.44,0,0,1,.11.3.48.48,0,0,1-.1.29A.31.31,0,0,1,10.15,21.81ZM8.78,15h.35a.29.29,0,0,1,.24.12.44.44,0,0,1,.1.3v.35a.43.43,0,0,1-.1.29.29.29,0,0,1-.24.13H8.77A.31.31,0,0,1,8.53,16a.37.37,0,0,1-.09-.28v-.36a.49.49,0,0,1,.1-.3A.31.31,0,0,1,8.78,15Z"/><path d="M16.32,17.67V15.74a.41.41,0,0,1,.1-.29.28.28,0,0,1,.23-.12.3.3,0,0,1,.24.12.42.42,0,0,1,.11.29v5.67a.44.44,0,0,1-.11.29.28.28,0,0,1-.23.12.29.29,0,0,1-.24-.12.43.43,0,0,1-.1-.29v-.19a1.31,1.31,0,0,1-.92.6h-.57a1,1,0,0,1-.69-.37l-.28-.28a1,1,0,0,1-.18-.38,1.55,1.55,0,0,1-.09-.49V18.63a1.4,1.4,0,0,1,.1-.54,1,1,0,0,1,.22-.4l.28-.28a.92.92,0,0,1,.69-.32h.49a1,1,0,0,1,.72.35Zm-1,.25h-.46a.36.36,0,0,0-.27.14l-.22.23a.45.45,0,0,0-.11.31v1.74a.41.41,0,0,0,.13.3l.22.23a.29.29,0,0,0,.22.12h.55a.4.4,0,0,0,.26-.16l.53-.53a.49.49,0,0,0,.13-.35v-.89a.57.57,0,0,0-.14-.44l-.55-.57A.35.35,0,0,0,15.34,17.92Z"/><path d="M22.51,21.81H20.46a.3.3,0,0,1-.24-.12.43.43,0,0,1-.1-.29.41.41,0,0,1,.1-.29.3.3,0,0,1,.24-.12h.69V17.92h-.68a.29.29,0,0,1-.24-.12.47.47,0,0,1,0-.58.29.29,0,0,1,.24-.13h1a.31.31,0,0,1,.24.13.43.43,0,0,1,.1.29V21h.67a.3.3,0,0,1,.24.11.44.44,0,0,1,.11.3.48.48,0,0,1-.1.29A.31.31,0,0,1,22.51,21.81ZM21.14,15h.35a.3.3,0,0,1,.24.12.44.44,0,0,1,.1.3v.35a.43.43,0,0,1-.1.29.31.31,0,0,1-.24.13h-.36a.31.31,0,0,1-.24-.13.42.42,0,0,1-.1-.28v-.36a.49.49,0,0,1,.1-.3A.31.31,0,0,1,21.14,15Z"/><path d="M29,21.82H27.6a.88.88,0,0,1-.65-.28l-.66-.7A1.19,1.19,0,0,1,26,20V18.92a1.23,1.23,0,0,1,.35-.91l.59-.62a.87.87,0,0,1,.61-.29H29a.29.29,0,0,1,.24.12.43.43,0,0,1,.1.29.44.44,0,0,1-.1.3.3.3,0,0,1-.24.11H27.6a.34.34,0,0,0-.26.14l-.55.56a.53.53,0,0,0-.13.36v1a.41.41,0,0,0,.11.28l.59.61a.38.38,0,0,0,.3.13H29a.32.32,0,0,1,.24.11.44.44,0,0,1,.1.3.43.43,0,0,1-.1.29A.29.29,0,0,1,29,21.82Z"/><path d="M34.52,21.82h-.68a.92.92,0,0,1-.71-.37,1.31,1.31,0,0,1-.3-.87V17.92h-.35a.34.34,0,0,1-.24-.11.49.49,0,0,1-.1-.3.48.48,0,0,1,.1-.29.31.31,0,0,1,.24-.12h.35v-1a.46.46,0,0,1,.1-.29.31.31,0,0,1,.24-.12.28.28,0,0,1,.23.12.44.44,0,0,1,.11.29v1h1.35a.3.3,0,0,1,.24.13.45.45,0,0,1,.1.28.46.46,0,0,1-.1.29.31.31,0,0,1-.24.12H33.5v2.66a.41.41,0,0,0,.1.29.33.33,0,0,0,.24.13h.66q.27,0,.36-.36c.06-.23.17-.35.34-.35a.29.29,0,0,1,.24.12.49.49,0,0,1,.09.3,1.22,1.22,0,0,1-.28.74A.91.91,0,0,1,34.52,21.82Z"/><path d="M38.33,21.41v-3.9a.48.48,0,0,1,.1-.29.33.33,0,0,1,.24-.13.3.3,0,0,1,.24.13.48.48,0,0,1,.1.29V18l.54-.57a1,1,0,0,1,.67-.36h.49a.91.91,0,0,1,.72.36,1.4,1.4,0,0,1,.29.87v.22a.44.44,0,0,1-.1.3.28.28,0,0,1-.23.12.29.29,0,0,1-.24-.12.41.41,0,0,1-.1-.29v-.23A.43.43,0,0,0,41,18a.29.29,0,0,0-.24-.12h-.43a.48.48,0,0,0-.32.18l-1,1v2.29a.48.48,0,0,1-.1.29.3.3,0,0,1-.48,0A.48.48,0,0,1,38.33,21.41Z"/><path d="M47.23,21.82h-2a.29.29,0,0,1-.23-.13.43.43,0,0,1-.1-.29.41.41,0,0,1,.1-.29.28.28,0,0,1,.23-.12h.68V16.15h-.68A.29.29,0,0,1,45,16a.43.43,0,0,1-.1-.29.41.41,0,0,1,.1-.29.29.29,0,0,1,.24-.12h1a.31.31,0,0,1,.24.12.48.48,0,0,1,.1.29V21h.68a.31.31,0,0,1,.24.12.46.46,0,0,1,.1.29.48.48,0,0,1-.1.29A.33.33,0,0,1,47.23,21.82Z"/></g></g></svg>